<?xml version="1.0"?>
<svg xmlns="http://www.w3.org/2000/svg" height="512px" viewBox="-17 0 448 448.00047" width="512px"><g><path d="m290.097656 224h75.199219c.535156-2.632812.800781-5.3125.800781-8v-8h-88zm0 0" data-original="#000000" class="active-path" data-old_color="#000000" fill="#FFFFFF"/><path d="m327.472656 152c12.359375-.035156 24.203125-4.941406 32.96875-13.65625l.320313.320312c-11.632813-40.410156-41.246094-73.203124-80.265625-88.878906-8.511719 10.472656-12.277344 24.011719-10.398438 37.375l-15.90625 1.679688c-1.898437-15.503906 1.730469-31.183594 10.25-44.28125-11.207031-2.980469-22.75-4.515625-34.34375-4.558594h-16c-11.828125.039062-23.597656 1.632812-35.007812 4.734375 7.289062 12.652344 11.089844 27.015625 11.007812 41.617187v1.648438h-16v-1.648438c.066406-12.933593-3.628906-25.605468-10.640625-36.472656-27.972656 11.316406-51.410156 31.570313-66.664062 57.601563l1.726562 3.441406c5.179688 10.488281 15.878907 17.113281 27.578125 17.078125v16c-15.003906.035156-29.097656-7.171875-37.855468-19.351562-6.695313 16.292968-10.140626 33.738281-10.144532 51.351562 0 8.835938 7.160156 16 16 16h47.460938c-1.4375-9.960938-6.035156-19.195312-13.117188-26.34375l11.3125-11.3125c10.082032 10.152344 16.414063 23.429688 17.957032 37.65625h36.707031c-10.253907-11.34375-14.453125-26.914062-11.289063-41.871094-19.738281-6.738281-33.007812-25.273437-33.03125-46.128906h16c-.003906 14.316406 9.273438 26.980469 22.925782 31.289062 7.136718-11.851562 19.039062-20.050781 32.65625-22.488281-1.308594-10.253906-5.960938-19.789062-13.238282-27.128906l11.3125-11.3125c10.078125 10.148437 16.410156 23.421875 17.957032 37.640625h49.058593c1.316407-7.539062 4.386719-14.664062 8.957031-20.800781l12.867188 9.519531c-8.65625 11.367188-8.65625 27.113281 0 38.480469l-12.898438 9.601562c-4.5625-6.140625-7.621093-13.265625-8.925781-20.800781h-56.671875c-17.675781 0-32 14.328125-32 32s14.324219 32 32 32h31.460938c-1.4375-9.960938-6.035156-19.195312-13.117188-26.34375l11.3125-11.3125c10.082032 10.152344 16.414063 23.429688 17.957032 37.65625h88.386718v-16c-.054687-6.757812-.613281-13.5-1.664062-20.175781-10.730469 7.851562-23.667969 12.113281-36.960938 12.175781h-1.375v-16zm0 0" data-original="#000000" class="active-path" data-old_color="#000000" fill="#FFFFFF"/><path d="m314.097656 256h12c12.523438-.035156 24.300782-5.964844 31.789063-16h-55.789063zm0 0" data-original="#000000" class="active-path" data-old_color="#000000" fill="#FFFFFF"/><path d="m357.65625 56.910156c-35.691406-36.296875-84.429688-56.792968-135.335938-56.910156h-.222656c-91.1875.167969-169.742187 64.292969-188.160156 153.601562-2.242188 11.078126-26.539062 124-33.9375 158.398438h46.097656c4.417969 0 8 3.582031 8 8v40h4.496094c17.542969-.183594 34.148438-7.957031 45.527344-21.3125l11.949218 10.625c-14.472656 16.6875-35.386718 26.398438-57.476562 26.6875h-4.496094v32c.023438 22.082031 17.917969 39.972656 40 40h153.496094c18.777344.089844 35.054688-12.96875 39.039062-31.320312l23.648438-106.398438 15.632812 3.472656-23.648437 106.398438c-2.386719 10.605468-7.816406 20.285156-15.625 27.847656h95.496094c.6875-70.890625 9.574219-141.46875 26.472656-210.320312 15.964844-65.03125-3.378906-133.671876-50.953125-180.800782zm-239.558594 223.089844c-13.257812 0-24-10.746094-24-24s10.742188-24 24-24c13.253906 0 24 10.746094 24 24s-10.746094 24-24 24zm264-80v16c-.042968 30.910156-25.089844 55.960938-56 56h-16c-2.519531 0-4.890625-1.1875-6.402344-3.199219l-45.597656-60.800781h-164c-17.675781 0-32-14.328125-32-32 .089844-83.910156 68.089844-151.90625 152-152h16c83.90625.09375 151.90625 68.089844 152 152zm0 0" data-original="#000000" class="active-path" data-old_color="#000000" fill="#FFFFFF"/></g> </svg>
