<?xml version="1.0"?>
<svg xmlns="http://www.w3.org/2000/svg" xmlns:xlink="http://www.w3.org/1999/xlink" version="1.1" id="Capa_1" x="0px" y="0px" viewBox="0 0 60 60" style="enable-background:new 0 0 60 60;" xml:space="preserve" width="512px" height="512px"><g><g>
	<path d="M36,0.599v4.396c0,3.179,1.35,6.377,3.609,8.555c1.644,1.583,2.51,3.818,2.377,6.132c-0.214,3.724-3.101,6.847-6.715,7.263   c-0.289,0.034-0.579,0.051-0.867,0.051c-1.144,0-2.268-0.262-3.295-0.771c-0.695-0.344-1.525-0.345-2.219,0.001   c-1.287,0.638-2.728,0.885-4.163,0.72c-3.613-0.416-6.5-3.539-6.714-7.263c-0.133-2.313,0.733-4.549,2.376-6.132   C22.718,11.307,24,8.367,24,5.269v-4.67C10.323,3.387,0,15.508,0,29.996c0,14.505,10.349,26.637,24.05,29.405v-5.679   c0-3.066-1.3-6.008-3.659-8.281c-1.644-1.583-2.51-3.818-2.377-6.133c0.214-3.724,3.101-6.846,6.715-7.262   c1.437-0.17,2.876,0.083,4.162,0.721c0.695,0.344,1.525,0.345,2.219-0.001c1.287-0.638,2.725-0.884,4.163-0.72   c3.613,0.416,6.5,3.538,6.714,7.262c0.133,2.314-0.733,4.55-2.376,6.133C37.282,47.684,36,50.624,36,53.722v5.67   c13.677-2.787,24-14.909,24-29.396S49.677,3.387,36,0.599z" data-original="#000000" class="active-path" data-old_color="#000000" fill="#FFFFFF"/>
</g></g> </svg>
