<?xml version="1.0"?>
<svg xmlns="http://www.w3.org/2000/svg" id="Layer_35" enable-background="new 0 0 64 64" height="512px" viewBox="0 0 64 64" width="512px" class=""><g><path d="m25.894 44.942-1.323.541 1.139 1.994c.537.94 1.542 1.523 2.624 1.523.796 0 1.574-.322 2.137-.885l.115-.115-3.651-3.651c-.32.232-.663.439-1.041.593z" data-original="#000000" class="active-path" data-old_color="#000000" fill="#FFFFFF"/><path d="m35.666 49c1.082 0 2.087-.583 2.624-1.522l1.139-1.994-1.323-.541c-.378-.155-.721-.362-1.041-.594l-3.651 3.651.115.115c.563.563 1.341.885 2.137.885z" data-original="#000000" class="active-path" data-old_color="#000000" fill="#FFFFFF"/><path d="m25.136 43.091c1.133-.463 1.864-1.553 1.864-2.777v-.718c-4.921-3.401-8-9.039-8-15.246 0-4.24 2.686-7.967 6.684-9.299l.437-.146 3.534 2.12c4.332 2.601 9.293 3.975 14.345 3.975h1v3.351c0 6.206-3.079 11.845-8 15.246v.718c0 1.224.731 2.313 1.864 2.776l9.778 4.001c1.195-.731 2.205-1.52 2.852-2.075-2.869-2.701-4.494-6.437-4.494-10.42v-16.597c0-8.271-6.729-15-15-15s-15 6.729-15 15v16.597c0 3.983-1.625 7.72-4.495 10.42.648.555 1.658 1.344 2.853 2.075zm19.864-25.091v1h-2v-1c0-.31-.013-.614-.038-.917l1.994-.166c.029.357.044.719.044 1.083zm-13-13c5.93 0 11.106 4.01 12.588 9.75l-1.936.5c-1.255-4.857-5.634-8.25-10.652-8.25z" data-original="#000000" class="active-path" data-old_color="#000000" fill="#FFFFFF"/><path d="m45 55v-7.237l-2-.818v8.055z" data-original="#000000" class="active-path" data-old_color="#000000" fill="#FFFFFF"/><path d="m35.714 42.872c-.372-.624-.606-1.328-.678-2.076-.864.45-1.773.837-2.719 1.152l-.317.106-.316-.105c-.947-.316-1.855-.702-2.719-1.152-.072.748-.306 1.452-.678 2.076l3.713 3.713z" data-original="#000000" class="active-path" data-old_color="#000000" fill="#FFFFFF"/><path d="m43 24.351v-1.367c-5.067-.17-10.018-1.628-14.375-4.242l-2.73-1.639c-2.946 1.172-4.895 4.02-4.895 7.221 0 7.05 4.406 13.273 11 15.618 6.594-2.344 11-8.568 11-15.591zm-5-1.351c.552 0 1 .448 1 1s-.448 1-1 1-1-.448-1-1 .448-1 1-1zm-12 2c-.552 0-1-.448-1-1s.448-1 1-1 1 .448 1 1-.448 1-1 1zm2 7h2c0 1.103.897 2 2 2s2-.897 2-2h2c0 2.206-1.794 4-4 4s-4-1.794-4-4z" data-original="#000000" class="active-path" data-old_color="#000000" fill="#FFFFFF"/><path d="m46.559 57h-29.118c-.431 0-.812.274-.949.684l-1.105 3.316h33.226l-1.105-3.316c-.137-.41-.519-.684-.949-.684z" data-original="#000000" class="active-path" data-old_color="#000000" fill="#FFFFFF"/><path d="m23 46.766v8.234h18v-8.234l-.974 1.704c-.891 1.56-2.562 2.53-4.36 2.53-1.322 0-2.616-.536-3.551-1.471l-.115-.115-.115.115c-.935.935-2.229 1.471-3.551 1.471-1.798 0-3.469-.97-4.36-2.53z" data-original="#000000" class="active-path" data-old_color="#000000" fill="#FFFFFF"/><path d="m48.365 49.14-1.365-.559v6.454c1.106.164 2.042.931 2.404 2.016l1.316 3.949h6.244c-.372-5.255-3.664-9.842-8.599-11.86z" data-original="#000000" class="active-path" data-old_color="#000000" fill="#FFFFFF"/><path d="m21 55v-8.055l-2 .818v7.237z" data-original="#000000" class="active-path" data-old_color="#000000" fill="#FFFFFF"/><path d="m17 55.035v-6.454l-1.365.559c-4.935 2.018-8.227 6.605-8.6 11.86h6.244l1.316-3.949c.363-1.085 1.299-1.852 2.405-2.016z" data-original="#000000" class="active-path" data-old_color="#000000" fill="#FFFFFF"/></g> </svg>
