<?xml version="1.0"?>
<svg xmlns="http://www.w3.org/2000/svg" xmlns:xlink="http://www.w3.org/1999/xlink" version="1.1" id="Capa_1" x="0px" y="0px" viewBox="0 0 56.214 56.214" style="enable-background:new 0 0 56.214 56.214;" xml:space="preserve" width="512px" height="512px"><g><path d="M47.631,45.532L36.575,32.02l7.324-9.493c0.027-0.036,0.053-0.073,0.075-0.113c3.321-5.779-4.146-18.572-5.01-20.012  c-0.001-0.002-0.002-0.003-0.003-0.004c-0.056-0.093-0.127-0.177-0.211-0.247c-0.028-0.024-0.063-0.036-0.094-0.057  c-0.057-0.038-0.112-0.081-0.178-0.107c-0.002-0.001-0.005-0.002-0.008-0.003c-0.001,0-0.002-0.001-0.003-0.001  c-6.622-2.644-14.103-2.643-20.72,0c-0.002,0.001-0.003,0.001-0.005,0.002c-0.002,0.001-0.004,0.002-0.007,0.002  c-0.061,0.024-0.111,0.064-0.164,0.099c-0.036,0.023-0.075,0.037-0.108,0.065c-0.084,0.071-0.154,0.154-0.211,0.247  C17.252,2.399,17.251,2.4,17.25,2.402c-0.863,1.439-8.331,14.232-5.01,20.012c0.022,0.04,0.048,0.077,0.075,0.113l7.323,9.493  L8.584,45.532C6.98,47.491,7.207,50.342,9.1,52.024l3.376,3.001c0.861,0.766,1.971,1.188,3.122,1.188  c1.471,0,2.828-0.667,3.726-1.83l8.784-11.386l8.783,11.386c0.897,1.163,2.255,1.83,3.726,1.83c1.151,0,2.261-0.422,3.122-1.188  l3.376-3.001C49.007,50.342,49.233,47.491,47.631,45.532z M22.966,15.386c3.32-1.173,6.965-1.173,10.283,0l-5.141,6.284  L22.966,15.386z M37.049,3.58l-0.331,3.966c-0.007,0.036-0.014,0.073-0.021,0.109c-0.05,0.237-0.105,0.467-0.162,0.695  c-0.03,0.118-0.059,0.236-0.09,0.351c-0.054,0.2-0.109,0.395-0.167,0.587c-0.044,0.146-0.089,0.289-0.135,0.431  c-0.05,0.155-0.101,0.309-0.153,0.458c-0.067,0.192-0.136,0.378-0.207,0.56c-0.035,0.09-0.068,0.183-0.104,0.271  c-0.428,1.07-0.886,1.959-1.285,2.651c-2.008-0.78-4.118-1.176-6.287-1.176c-2.167,0-4.277,0.395-6.285,1.175  c-0.403-0.699-0.865-1.598-1.297-2.68c-0.019-0.049-0.038-0.101-0.058-0.151c-0.086-0.221-0.17-0.449-0.253-0.684  c-0.042-0.121-0.083-0.246-0.124-0.372c-0.056-0.171-0.111-0.345-0.164-0.523c-0.05-0.167-0.099-0.337-0.146-0.51  c-0.039-0.145-0.076-0.293-0.113-0.441c-0.05-0.202-0.099-0.405-0.144-0.614c-0.01-0.049-0.019-0.099-0.029-0.148L19.166,3.58  C24.905,1.471,31.308,1.469,37.049,3.58z" data-original="#000000" class="active-path" data-old_color="#000000" fill="#FFFFFF"/></g> </svg>
