<?xml version="1.0"?>
<svg xmlns="http://www.w3.org/2000/svg" xmlns:xlink="http://www.w3.org/1999/xlink" version="1.1" id="Layer_1" x="0px" y="0px" viewBox="0 0 512 512" style="enable-background:new 0 0 512 512;" xml:space="preserve" width="512px" height="512px"><g><g>
	<path d="M452.894,29.568c-27.7-18.442-64.878-14.795-88.433,8.76c-21.006,21.006-26.455,52.778-13.784,79.526   c-8.947,10.149-14.927,22.41-17.393,35.533c-11.633,2.167-23.194,7.116-32.284,13.995V0h-30c0,91.122,0,212.687,0,302.531   c-4.775-0.313-9.71-0.531-15-0.531s-10.225,0.218-15,0.531c0-89.844,0-211.408,0-302.531h-30v167.383   c-9.089-6.879-20.649-11.829-32.282-13.995c-2.466-13.123-8.448-25.384-17.395-35.533c12.671-26.748,7.222-58.521-13.784-79.526   c-23.525-23.555-60.747-27.202-88.433-8.76C22.09,54.251,0,95.53,0,140.018v53.965c0,44.487,22.09,85.767,59.106,110.449   c27.677,18.44,64.855,14.818,88.433-8.76c21.006-21.006,26.455-52.778,13.784-79.526c8.141-9.236,13.606-20.288,16.425-32.082   C196.328,189.601,211,206.644,211,227v80.026c-53.252,13.658-60,51.67-60,69.974c0,34.702,21.68,59.59,60,69.624V512h90v-65.376   c38.32-10.034,60-34.922,60-69.624c0-18.303-6.748-56.316-60-69.974V227c0-20.358,14.671-37.399,33.252-42.937   c2.818,11.794,8.284,22.846,16.425,32.082c-12.671,26.748-7.222,58.521,13.784,79.526c23.589,23.589,60.766,27.193,88.433,8.76   C489.91,279.749,512,238.47,512,193.982v-53.965C512,95.53,489.91,54.251,452.894,29.568z" data-original="#000000" class="active-path" data-old_color="#000000" fill="#FFFFFF"/>
</g></g> </svg>
